<svg width="206" height="60" fill="none" xmlns="http://www.w3.org/2000/svg"><path d="M1.602 6.74c0-3.364 2.68-6.073 5.96-6.073H199.24c3.283 0 5.963 2.71 5.963 6.074v46.518c0 3.365-2.68 6.074-5.963 6.074H7.562c-3.28 0-5.96-2.71-5.96-6.074V6.741z" fill="#000" stroke="#696969" stroke-width="1.335"/><path d="M63.66 20.339h3.36c.93 0 1.718-.184 2.367-.552a3.66 3.66 0 001.496-1.613c.349-.702.523-1.549.523-2.541v-.013c0-.984-.174-1.823-.523-2.516a3.634 3.634 0 00-1.496-1.592c-.653-.369-1.442-.553-2.366-.553h-3.36v9.38zm1.445-1.261V12.22h1.754c.645 0 1.196.134 1.651.403a2.61 2.61 0 011.045 1.17c.245.512.368 1.127.368 1.846v.013c0 .724-.12 1.342-.362 1.853a2.558 2.558 0 01-1.044 1.17c-.456.269-1.008.403-1.657.403h-1.755zm11.06 1.398c.688 0 1.277-.148 1.767-.442a2.92 2.92 0 001.142-1.262c.27-.55.406-1.202.406-1.956v-.013c0-.759-.136-1.41-.406-1.957a2.872 2.872 0 00-1.142-1.26c-.494-.296-1.083-.443-1.767-.443-.68 0-1.268.147-1.767.442a2.96 2.96 0 00-1.148 1.261c-.266.546-.4 1.198-.4 1.957v.013c0 .754.134 1.406.4 1.956a2.92 2.92 0 001.142 1.262c.498.294 1.09.442 1.773.442zm0-1.184c-.4 0-.74-.097-1.019-.292-.28-.2-.494-.483-.645-.852-.146-.368-.219-.812-.219-1.332v-.013c0-.525.073-.97.22-1.34.15-.368.365-.65.644-.844.28-.2.62-.3 1.02-.3.399 0 .739.1 1.018.3.28.195.492.476.639.845.146.368.219.814.219 1.339v.013c0 .52-.073.964-.22 1.332-.146.369-.359.653-.638.852-.28.195-.619.292-1.019.292zm6.049 1.047h1.438l1.438-5.265h.11l1.451 5.265h1.451l1.922-7.06h-1.387l-1.257 5.448h-.103l-1.445-5.447h-1.335l-1.438 5.447h-.11L81.7 13.28h-1.413l1.928 7.059zm9.248 0h1.4v-4.14c0-.382.066-.71.2-.982.137-.278.33-.49.58-.637a1.66 1.66 0 01.883-.228c.516 0 .894.145 1.135.436.245.286.368.723.368 1.313v4.238h1.405v-4.57c0-.84-.208-1.488-.625-1.943-.417-.455-1.019-.683-1.806-.683-.511 0-.935.106-1.27.319a2.005 2.005 0 00-.761.884h-.11V13.28h-1.4v7.059zm7.983 0h1.4V10.51h-1.4v9.829zm6.449.137c.688 0 1.277-.148 1.767-.442a2.92 2.92 0 001.142-1.262c.271-.55.406-1.202.406-1.956v-.013c0-.759-.135-1.41-.406-1.957a2.872 2.872 0 00-1.142-1.26c-.494-.296-1.083-.443-1.767-.443-.679 0-1.268.147-1.767.442a2.963 2.963 0 00-1.148 1.261c-.266.546-.399 1.198-.399 1.957v.013c0 .754.133 1.406.399 1.956a2.92 2.92 0 001.142 1.262c.499.294 1.09.442 1.773.442zm0-1.184c-.4 0-.739-.097-1.019-.292a1.892 1.892 0 01-.644-.852c-.147-.368-.22-.812-.22-1.332v-.013c0-.525.073-.97.22-1.34.15-.368.365-.65.644-.844.28-.2.619-.3 1.019-.3.4 0 .74.1 1.019.3.28.195.493.476.639.845.146.368.219.814.219 1.339v.013c0 .52-.073.964-.219 1.332-.146.369-.359.653-.639.852-.279.195-.619.292-1.019.292zm6.901 1.164c.309 0 .595-.043.857-.13.263-.087.497-.212.703-.377.207-.169.379-.373.516-.611h.103v1.001h1.393v-4.83c0-.494-.107-.916-.322-1.267a2.02 2.02 0 00-.935-.813c-.409-.19-.907-.286-1.496-.286-.529 0-1 .08-1.413.24-.408.16-.739.386-.993.677a1.928 1.928 0 00-.458 1.014l-.006.045h1.348l.013-.02c.081-.25.245-.446.49-.584.249-.139.569-.208.961-.208.468 0 .821.104 1.057.312.241.203.361.5.361.89v2.223c0 .304-.077.577-.232.82-.155.238-.37.428-.645.571-.271.14-.58.208-.928.208-.374 0-.684-.09-.929-.273a.905.905 0 01-.368-.76v-.013c0-.317.114-.561.342-.735.228-.177.583-.281 1.064-.312l2.393-.156v-.994l-2.586.156c-.834.052-1.479.258-1.935.617-.451.356-.677.85-.677 1.482v.013c0 .425.101.796.303 1.112.202.316.477.561.826.735.352.169.75.253 1.193.253zm8.099 0c.495 0 .927-.108 1.297-.325.369-.217.655-.518.857-.904h.103v1.112h1.406V10.51h-1.406v3.888h-.103a2.066 2.066 0 00-.857-.904 2.508 2.508 0 00-1.297-.338c-.593 0-1.107.15-1.541.449-.434.294-.769.715-1.006 1.26-.236.547-.355 1.192-.355 1.938v.013c0 .74.119 1.384.355 1.93.241.546.578.969 1.013 1.268.438.295.95.442 1.534.442zm.4-1.21c-.387 0-.722-.097-1.006-.292-.279-.195-.494-.474-.645-.838-.146-.364-.219-.797-.219-1.3v-.013c0-.507.073-.94.219-1.3.151-.364.366-.644.645-.839.284-.2.619-.299 1.006-.299s.72.1 1 .3c.283.194.501.474.651.838.155.364.232.797.232 1.3v.013c0 .498-.075.931-.225 1.3a1.838 1.838 0 01-.652.838 1.733 1.733 0 01-1.006.293zm11.905 1.23c.688 0 1.277-.148 1.767-.442a2.918 2.918 0 001.141-1.262c.271-.55.406-1.202.406-1.956v-.013c0-.759-.135-1.41-.406-1.957a2.87 2.87 0 00-1.141-1.26c-.495-.296-1.084-.443-1.767-.443-.68 0-1.269.147-1.767.442a2.957 2.957 0 00-1.148 1.261c-.267.546-.4 1.198-.4 1.957v.013c0 .754.133 1.406.4 1.956.266.546.647.967 1.141 1.262.499.294 1.09.442 1.774.442zm0-1.184c-.4 0-.74-.097-1.019-.292-.28-.2-.495-.483-.645-.852-.146-.368-.219-.812-.219-1.332v-.013c0-.525.073-.97.219-1.34.15-.368.365-.65.645-.844.279-.2.619-.3 1.019-.3.4 0 .739.1 1.019.3.279.195.492.476.638.845.146.368.219.814.219 1.339v.013c0 .52-.073.964-.219 1.332-.146.369-.359.653-.638.852-.28.195-.619.292-1.019.292zm4.978 1.047h1.4v-4.14c0-.382.066-.71.2-.982.137-.278.331-.49.58-.637.249-.152.544-.228.883-.228.516 0 .895.145 1.135.436.246.286.368.723.368 1.313v4.238h1.406v-4.57c0-.84-.209-1.488-.626-1.943-.417-.455-1.019-.683-1.805-.683-.512 0-.935.106-1.271.319a2.006 2.006 0 00-.761.884h-.109V13.28h-1.4v7.059zm14.162.045c.137 0 .271-.008.4-.026.129-.012.249-.028.361-.045v-1.131a8.237 8.237 0 01-.265.02 4.494 4.494 0 01-.264.006c-.348 0-.598-.082-.748-.247-.15-.17-.226-.444-.226-.826v-3.744h1.503V13.28h-1.503v-1.781h-1.431v1.78h-1.097v1.112h1.097v4.089c0 .676.169 1.163.509 1.462.344.295.899.442 1.664.442zm2.463-.045h1.4v-4.14c0-.382.066-.71.2-.982.137-.278.331-.49.58-.637.249-.152.544-.228.884-.228.515 0 .894.145 1.135.436.245.286.367.723.367 1.313v4.238h1.406v-4.57c0-.559-.095-1.033-.284-1.423a1.984 1.984 0 00-.825-.897c-.361-.204-.802-.306-1.322-.306-.512 0-.935.106-1.271.319a2.006 2.006 0 00-.761.884h-.109V10.51h-1.4v9.829zm10.86.137a3.7 3.7 0 001.193-.176c.349-.117.645-.27.89-.462a2.42 2.42 0 00.916-1.333l.013-.058h-1.354l-.026.052a1.099 1.099 0 01-.29.37 1.724 1.724 0 01-.536.32 2.165 2.165 0 01-.774.123c-.391 0-.73-.087-1.018-.26a1.708 1.708 0 01-.658-.754c-.155-.33-.232-.726-.232-1.19v-.565c0-.486.077-.895.232-1.229a1.74 1.74 0 01.645-.754 1.72 1.72 0 01.935-.26c.348 0 .655.082.922.247.266.165.475.414.625.748.155.329.233.745.233 1.248v.565l.67-.936h-4.965v1.008h5.662v-.494c0-.71-.127-1.33-.381-1.86a2.88 2.88 0 00-1.09-1.24c-.468-.296-1.029-.443-1.683-.443-.649 0-1.216.154-1.702.462a3.075 3.075 0 00-1.122 1.287c-.263.55-.394 1.194-.394 1.93v.007c0 .745.131 1.39.394 1.937.266.546.645.969 1.135 1.268.49.294 1.077.442 1.76.442z" fill="#fff"/><path fill-rule="evenodd" clip-rule="evenodd" d="M124.4 42.984c-2.515 0-4.355-1.254-4.567-3.163h-2.927c.185 3.483 3.045 5.686 7.282 5.686 4.528 0 7.375-2.256 7.375-5.859 0-2.817-1.629-4.404-5.548-5.338l-2.105-.52c-2.462-.614-3.469-1.415-3.469-2.777 0-1.708 1.576-2.881 3.879-2.881s3.879 1.16 4.052 3.081h2.886c-.093-3.322-2.861-5.604-6.897-5.604-4.079 0-6.951 2.282-6.951 5.604 0 2.684 1.628 4.337 5.136 5.191l2.476.602c2.476.613 3.521 1.508 3.521 3.002 0 1.722-1.733 2.976-4.143 2.976zm-57.09-3.003h7.282l1.747 5.205h3.137L72.579 25.93h-3.205l-6.897 19.256h3.084l1.75-5.205zm6.526-2.401h-5.772l2.847-8.447h.08l2.845 8.447zm14.723 7.753c3.496 0 5.812-2.803 5.812-7.166 0-4.35-2.33-7.167-5.865-7.167a4.91 4.91 0 00-2.557.623 4.96 4.96 0 00-1.877 1.859h-.053v-2.335h-2.767V49.83h2.859v-6.954h.066a4.74 4.74 0 001.84 1.863c.776.434 1.656.64 2.542.593zm-.807-11.877c2.224 0 3.68 1.869 3.68 4.711 0 2.868-1.456 4.723-3.68 4.723-2.184 0-3.653-1.894-3.653-4.723 0-2.803 1.469-4.71 3.653-4.71zm21.949 4.711c0 4.363-2.316 7.166-5.812 7.166a4.694 4.694 0 01-2.542-.593 4.74 4.74 0 01-1.84-1.863h-.067v6.953h-2.859V31.148h2.768v2.335h.052a4.966 4.966 0 011.877-1.859 4.911 4.911 0 012.558-.623c3.535 0 5.865 2.816 5.865 7.167zm-2.938 0c0-2.842-1.458-4.71-3.681-4.71-2.185 0-3.654 1.907-3.654 4.71 0 2.829 1.469 4.723 3.654 4.723 2.223 0 3.681-1.855 3.681-4.723zm30.97-10.343v3.323h2.649v2.282h-2.649v7.74c0 1.202.53 1.762 1.695 1.762a8.88 8.88 0 00.94-.066v2.268a7.789 7.789 0 01-1.588.133c-2.82 0-3.92-1.067-3.92-3.79v-8.047h-2.025v-2.282h2.025v-3.323h2.873zm10.788 3.15c-4.025 0-6.606 2.776-6.606 7.193 0 4.43 2.556 7.193 6.606 7.193 4.052 0 6.607-2.763 6.607-7.193 0-4.417-2.569-7.193-6.607-7.193zm0 2.375c2.317 0 3.694 1.788 3.694 4.818 0 3.042-1.377 4.817-3.694 4.817-2.316 0-3.693-1.775-3.693-4.817 0-3.016 1.377-4.818 3.693-4.818zm8.964-2.202h2.727v2.39h.066a3.355 3.355 0 011.229-1.868 3.303 3.303 0 012.121-.67c.33 0 .659.036.98.108v2.696a3.966 3.966 0 00-1.285-.174 2.858 2.858 0 00-2.226.924 2.912 2.912 0 00-.753 2.306v8.327h-2.859v-14.04zm14.307 14.213c3.15 0 5.613-1.749 5.997-4.297h-2.714a3.17 3.17 0 01-1.284 1.524 3.13 3.13 0 01-1.933.45 3.602 3.602 0 01-2.764-1.136 3.683 3.683 0 01-.983-2.84v-.175h9.838V37.9c0-4.257-2.424-6.925-6.277-6.925-3.918 0-6.447 2.856-6.447 7.26 0 4.39 2.515 7.126 6.567 7.126zm3.296-8.488h-6.963a3.582 3.582 0 011.037-2.526 3.523 3.523 0 012.51-1.037 3.329 3.329 0 012.48 1.03 3.378 3.378 0 01.936 2.533zM43.213 29.323c0-5.123 4.063-7.234 4.063-7.234s-2.077-3.818-7.356-3.818c-3.067 0-5.423 1.774-6.693 1.774-1.477 0-3.684-1.668-6.53-1.668-4.376 0-9.04 3.984-9.04 11.575 0 7.717 5.512 17.316 9.875 17.316 1.52 0 3.86-1.56 6.214-1.56 2.314 0 4.017 1.504 6.213 1.504 4.778 0 8.314-10.121 8.314-10.121s-5.06-1.991-5.06-7.768zm-4.708-14.13c2.454-2.994 1.942-6.103 1.942-6.103s-3.43.016-5.898 3.323c-2.194 2.94-1.635 5.453-1.635 5.453s2.974.524 5.591-2.674z" fill="#fff"/></svg>