<svg width="158" height="48" fill="none" xmlns="http://www.w3.org/2000/svg"><path d="M47.595 26.477c.077-.813.155-1.625.155-2.477C47.75 11.187 36.854.348 23.972.348 11.092.348.195 11.188.195 24c0 12.813 10.896 23.652 23.777 23.652 10.313 0 19.342-6.93 22.533-16.258H30.47v-17.11H9.34v2.245h18.524v17.187h15.138c-3.619 6.852-10.896 11.652-19.03 11.652-11.636 0-21.481-9.794-21.481-21.368 0-11.574 9.845-21.368 21.481-21.368 11.636 0 21.482 9.794 21.482 21.368 0 .852-.039 1.665-.156 2.477h2.297z" fill="#EC1824"/><path d="M9.301 18.813v14.903h15.878v-2.245h-13.27v-6.852h11.869V22.49h-11.87v-3.677H9.301z" fill="#EC1824"/><path d="M67.13 14.284h-8.639c-3.502 0-5.02 1.548-5.02 4.993v9.407c0 3.484 1.557 4.993 5.02 4.993h8.64c3.502 0 5.02-1.548 5.02-4.993v-5.071h-8.795v2.129h6.265v2.71c0 2.322-.778 3.096-3.113 3.096h-7.355c-2.257 0-3.114-.851-3.114-3.096v-8.826c0-2.284.818-3.097 3.114-3.097h7.316c2.335 0 3.113.774 3.113 3.097v.851h2.608v-1.16c0-3.485-1.557-5.033-5.06-5.033zm18.174 0h-2.646l-9.534 19.432h2.763l2.335-4.955h11.324l2.335 4.955H94.8l-9.496-19.355v-.077zm-6.07 12.348l4.67-9.87 4.63 9.87h-9.3zm27.98.194l-8.406-12.542h-2.257v19.432h2.49V18.813l7.356 10.877h1.479l7.394-10.877v14.903h2.452V14.284h-2.141l-8.367 12.542zm46.817-3.871l-9.418-.93c-1.635-.193-2.063-.618-2.063-2.05v-1.51c0-1.549.506-2.052 2.063-2.052h8.25c1.557 0 2.063.503 2.063 2.052v1.006h2.529v-1.355c0-2.593-1.206-3.793-3.814-3.793h-9.845c-2.608 0-3.814 1.2-3.814 3.793v2.361c0 2.44 1.089 3.562 3.814 3.794l9.417.89c1.635.194 2.063.62 2.063 2.052v2.284c0 1.548-.506 2.051-2.063 2.051h-8.912c-1.556 0-2.062-.503-2.062-2.051v-1.433h-2.53v1.82c0 2.593 1.207 3.793 3.814 3.793h10.508c2.607 0 3.813-1.2 3.813-3.793v-3.136c0-2.438-1.128-3.56-3.813-3.793zm-30.005-6.426h12.959v-2.245h-15.566v2.245h2.607zm0 8.091h11.87v-2.13h-11.87v-3.638h-2.607v14.864h15.839v-2.245h-13.232v-6.852z" fill="#fff"/></svg>