<svg width="206" height="60" viewBox="0 0 206 60" fill="none" xmlns="http://www.w3.org/2000/svg">
<path d="M1.60233 6.74087C1.60233 3.37607 4.28191 0.667268 7.56244 0.667268H199.24C202.523 0.667268 205.203 3.37624 205.203 6.74087V53.2591C205.203 56.6238 202.523 59.3327 199.24 59.3327H7.56244C4.28191 59.3327 1.60233 56.6239 1.60233 53.2591V6.74087Z" fill="black" stroke="#696969" stroke-width="1.33454"/>
<path d="M63.6608 20.339H67.0207C67.9493 20.339 68.7382 20.1548 69.3874 19.7865C70.0409 19.4138 70.5396 18.8764 70.8835 18.1744C71.2318 17.4723 71.4059 16.6251 71.4059 15.6327V15.6197C71.4059 14.636 71.2318 13.7974 70.8835 13.1041C70.5396 12.4107 70.0409 11.8798 69.3874 11.5115C68.7339 11.1431 67.945 10.9589 67.0207 10.9589H63.6608V20.339ZM65.1054 19.0779V12.22H66.8595C67.5043 12.22 68.0546 12.3544 68.5104 12.623C68.9661 12.8917 69.3143 13.2817 69.5551 13.7931C69.8001 14.3045 69.9227 14.9198 69.9227 15.6392V15.6522C69.9227 16.3759 69.8023 16.9935 69.5615 17.5048C69.3251 18.0162 68.9768 18.4062 68.5168 18.6749C68.0611 18.9436 67.5086 19.0779 66.8595 19.0779H65.1054Z" fill="white"/>
<path d="M76.1651 20.4755C76.853 20.4755 77.442 20.3282 77.9321 20.0335C78.4265 19.7388 78.807 19.3184 79.0736 18.7724C79.3444 18.222 79.4799 17.5698 79.4799 16.8158V16.8028C79.4799 16.0444 79.3444 15.3922 79.0736 14.8462C78.807 14.2958 78.4265 13.8754 77.9321 13.5851C77.4377 13.2904 76.8487 13.1431 76.1651 13.1431C75.4859 13.1431 74.8969 13.2904 74.3982 13.5851C73.9038 13.8798 73.5211 14.3001 73.2503 14.8462C72.9837 15.3922 72.8504 16.0444 72.8504 16.8028V16.8158C72.8504 17.5698 72.9837 18.222 73.2503 18.7724C73.5168 19.3184 73.8973 19.7388 74.3917 20.0335C74.8904 20.3282 75.4816 20.4755 76.1651 20.4755ZM76.1651 19.2924C75.7653 19.2924 75.4257 19.1949 75.1462 18.9999C74.8668 18.8006 74.6518 18.5167 74.5013 18.1484C74.3552 17.78 74.2821 17.3358 74.2821 16.8158V16.8028C74.2821 16.2784 74.3552 15.8321 74.5013 15.4637C74.6518 15.0954 74.8668 14.8137 75.1462 14.6187C75.4257 14.4193 75.7653 14.3196 76.1651 14.3196C76.565 14.3196 76.9046 14.4193 77.1841 14.6187C77.4635 14.8137 77.6763 15.0954 77.8225 15.4637C77.9687 15.8321 78.0418 16.2784 78.0418 16.8028V16.8158C78.0418 17.3358 77.9687 17.78 77.8225 18.1484C77.6763 18.5167 77.4635 18.8006 77.1841 18.9999C76.9046 19.1949 76.565 19.2924 76.1651 19.2924Z" fill="white"/>
<path d="M82.2142 20.339H83.6523L85.0904 15.0737H85.2L86.651 20.339H88.102L90.0237 13.2796H88.6372L87.3797 18.7269H87.2765L85.832 13.2796H84.4971L83.059 18.7269H82.9493L81.6983 13.2796H80.286L82.2142 20.339Z" fill="white"/>
<path d="M91.4618 20.339H92.8612V16.1983C92.8612 15.8169 92.9279 15.4897 93.0611 15.2167C93.1987 14.9393 93.3922 14.727 93.6415 14.5797C93.8909 14.428 94.1854 14.3521 94.525 14.3521C95.0409 14.3521 95.4193 14.4973 95.66 14.7877C95.9051 15.0737 96.0276 15.5114 96.0276 16.1007V20.339H97.4334V15.7692C97.4334 14.9285 97.2249 14.2806 96.8079 13.8256C96.3909 13.3706 95.789 13.1431 95.0022 13.1431C94.4906 13.1431 94.0671 13.2492 93.7318 13.4616C93.3965 13.6739 93.1428 13.9686 92.9708 14.3456H92.8612V13.2796H91.4618V20.339Z" fill="white"/>
<path d="M99.4455 20.339H100.845V10.5104H99.4455V20.339Z" fill="white"/>
<path d="M105.894 20.4755C106.582 20.4755 107.171 20.3282 107.661 20.0335C108.156 19.7388 108.536 19.3184 108.803 18.7724C109.074 18.222 109.209 17.5698 109.209 16.8158V16.8028C109.209 16.0444 109.074 15.3922 108.803 14.8462C108.536 14.2958 108.156 13.8754 107.661 13.5851C107.167 13.2904 106.578 13.1431 105.894 13.1431C105.215 13.1431 104.626 13.2904 104.127 13.5851C103.633 13.8798 103.25 14.3001 102.979 14.8462C102.713 15.3922 102.58 16.0444 102.58 16.8028V16.8158C102.58 17.5698 102.713 18.222 102.979 18.7724C103.246 19.3184 103.626 19.7388 104.121 20.0335C104.62 20.3282 105.211 20.4755 105.894 20.4755ZM105.894 19.2924C105.494 19.2924 105.155 19.1949 104.875 18.9999C104.596 18.8006 104.381 18.5167 104.231 18.1484C104.084 17.78 104.011 17.3358 104.011 16.8158V16.8028C104.011 16.2784 104.084 15.8321 104.231 15.4637C104.381 15.0954 104.596 14.8137 104.875 14.6187C105.155 14.4193 105.494 14.3196 105.894 14.3196C106.294 14.3196 106.634 14.4193 106.913 14.6187C107.193 14.8137 107.406 15.0954 107.552 15.4637C107.698 15.8321 107.771 16.2784 107.771 16.8028V16.8158C107.771 17.3358 107.698 17.78 107.552 18.1484C107.406 18.5167 107.193 18.8006 106.913 18.9999C106.634 19.1949 106.294 19.2924 105.894 19.2924Z" fill="white"/>
<path d="M112.795 20.456C113.104 20.456 113.39 20.4127 113.652 20.326C113.915 20.2393 114.149 20.1136 114.355 19.949C114.562 19.78 114.734 19.5763 114.871 19.3379H114.974V20.339H116.367V15.5092C116.367 15.0152 116.26 14.5927 116.045 14.2416C115.834 13.8863 115.522 13.6154 115.11 13.4291C114.701 13.2384 114.203 13.1431 113.614 13.1431C113.085 13.1431 112.614 13.2232 112.201 13.3836C111.793 13.5439 111.462 13.7693 111.208 14.0596C110.959 14.3456 110.806 14.6837 110.75 15.0737L110.744 15.1192H112.092L112.105 15.0997C112.186 14.8483 112.35 14.6533 112.595 14.5147C112.844 14.376 113.164 14.3066 113.556 14.3066C114.024 14.3066 114.377 14.4106 114.613 14.6187C114.854 14.8223 114.974 15.1192 114.974 15.5092V17.7323C114.974 18.0357 114.897 18.3087 114.742 18.5514C114.587 18.7897 114.372 18.9804 114.097 19.1234C113.826 19.2621 113.517 19.3314 113.169 19.3314C112.795 19.3314 112.485 19.2404 112.24 19.0584C111.995 18.8721 111.872 18.6186 111.872 18.2979V18.2849C111.872 17.9685 111.986 17.7237 112.214 17.5503C112.442 17.3727 112.797 17.2686 113.278 17.2383L115.671 17.0823V16.0877L113.085 16.2438C112.251 16.2958 111.606 16.5016 111.15 16.8613C110.699 17.2166 110.473 17.7107 110.473 18.3434V18.3564C110.473 18.7811 110.574 19.1516 110.776 19.4679C110.978 19.7843 111.253 20.0291 111.602 20.2025C111.954 20.3715 112.352 20.456 112.795 20.456Z" fill="white"/>
<path d="M120.894 20.456C121.389 20.456 121.821 20.3477 122.191 20.131C122.56 19.9143 122.846 19.6131 123.048 19.2274H123.151V20.339H124.557V10.5104H123.151V14.3976H123.048C122.863 14.0163 122.577 13.7151 122.191 13.4941C121.808 13.2687 121.376 13.1561 120.894 13.1561C120.301 13.1561 119.787 13.3056 119.353 13.6046C118.919 13.8993 118.584 14.3196 118.347 14.8657C118.111 15.4117 117.992 16.0574 117.992 16.8028V16.8158C117.992 17.5568 118.111 18.2004 118.347 18.7464C118.588 19.2924 118.925 19.715 119.36 20.014C119.798 20.3087 120.31 20.456 120.894 20.456ZM121.294 19.2469C120.907 19.2469 120.572 19.1494 120.288 18.9544C120.009 18.7594 119.794 18.4799 119.643 18.1159C119.497 17.7518 119.424 17.3185 119.424 16.8158V16.8028C119.424 16.2958 119.497 15.8624 119.643 15.5027C119.794 15.1387 120.009 14.8592 120.288 14.6642C120.572 14.4648 120.907 14.3651 121.294 14.3651C121.681 14.3651 122.014 14.4648 122.294 14.6642C122.577 14.8592 122.795 15.1387 122.945 15.5027C123.1 15.8667 123.177 16.3001 123.177 16.8028V16.8158C123.177 17.3141 123.102 17.7475 122.952 18.1159C122.801 18.4799 122.584 18.7594 122.3 18.9544C122.016 19.1494 121.681 19.2469 121.294 19.2469Z" fill="white"/>
<path d="M133.199 20.4755C133.887 20.4755 134.476 20.3282 134.966 20.0335C135.46 19.7388 135.841 19.3184 136.107 18.7724C136.378 18.222 136.513 17.5698 136.513 16.8158V16.8028C136.513 16.0444 136.378 15.3922 136.107 14.8462C135.841 14.2958 135.46 13.8754 134.966 13.5851C134.471 13.2904 133.882 13.1431 133.199 13.1431C132.519 13.1431 131.93 13.2904 131.432 13.5851C130.937 13.8798 130.555 14.3001 130.284 14.8462C130.017 15.3922 129.884 16.0444 129.884 16.8028V16.8158C129.884 17.5698 130.017 18.222 130.284 18.7724C130.55 19.3184 130.931 19.7388 131.425 20.0335C131.924 20.3282 132.515 20.4755 133.199 20.4755ZM133.199 19.2924C132.799 19.2924 132.459 19.1949 132.18 18.9999C131.9 18.8006 131.685 18.5167 131.535 18.1484C131.389 17.78 131.316 17.3358 131.316 16.8158V16.8028C131.316 16.2784 131.389 15.8321 131.535 15.4637C131.685 15.0954 131.9 14.8137 132.18 14.6187C132.459 14.4193 132.799 14.3196 133.199 14.3196C133.599 14.3196 133.938 14.4193 134.218 14.6187C134.497 14.8137 134.71 15.0954 134.856 15.4637C135.002 15.8321 135.075 16.2784 135.075 16.8028V16.8158C135.075 17.3358 135.002 17.78 134.856 18.1484C134.71 18.5167 134.497 18.8006 134.218 18.9999C133.938 19.1949 133.599 19.2924 133.199 19.2924Z" fill="white"/>
<path d="M138.177 20.339H139.577V16.1983C139.577 15.8169 139.643 15.4897 139.777 15.2167C139.914 14.9393 140.108 14.727 140.357 14.5797C140.606 14.428 140.901 14.3521 141.24 14.3521C141.756 14.3521 142.135 14.4973 142.375 14.7877C142.621 15.0737 142.743 15.5114 142.743 16.1007V20.339H144.149V15.7692C144.149 14.9285 143.94 14.2806 143.523 13.8256C143.106 13.3706 142.504 13.1431 141.718 13.1431C141.206 13.1431 140.783 13.2492 140.447 13.4616C140.112 13.6739 139.858 13.9686 139.686 14.3456H139.577V13.2796H138.177V20.339Z" fill="white"/>
<path d="M152.339 20.3845C152.476 20.3845 152.61 20.3758 152.739 20.3585C152.868 20.3455 152.988 20.3303 153.1 20.313V19.1819C153.001 19.1906 152.913 19.1971 152.835 19.2014C152.762 19.2058 152.674 19.2079 152.571 19.2079C152.223 19.2079 151.973 19.1256 151.823 18.9609C151.673 18.7919 151.597 18.5167 151.597 18.1354V14.3911H153.1V13.2796H151.597V11.4985H150.166V13.2796H149.069V14.3911H150.166V18.4799C150.166 19.1559 150.335 19.6435 150.675 19.9425C151.019 20.2372 151.574 20.3845 152.339 20.3845Z" fill="white"/>
<path d="M154.802 20.339H156.202V16.1983C156.202 15.8169 156.268 15.4897 156.402 15.2167C156.539 14.9393 156.733 14.727 156.982 14.5797C157.231 14.428 157.526 14.3521 157.866 14.3521C158.381 14.3521 158.76 14.4973 159.001 14.7877C159.246 15.0737 159.368 15.5114 159.368 16.1007V20.339H160.774V15.7692C160.774 15.2102 160.679 14.7357 160.49 14.3456C160.301 13.9513 160.026 13.6523 159.665 13.4486C159.304 13.2449 158.863 13.1431 158.343 13.1431C157.831 13.1431 157.408 13.2492 157.072 13.4616C156.737 13.6739 156.483 13.9686 156.311 14.3456H156.202V10.5104H154.802V20.339Z" fill="white"/>
<path d="M165.662 20.4755C166.114 20.4755 166.511 20.417 166.855 20.3C167.204 20.183 167.5 20.0291 167.745 19.8385C167.995 19.6478 168.194 19.4376 168.345 19.2079C168.495 18.9739 168.601 18.7399 168.661 18.5059L168.674 18.4474H167.32L167.294 18.4994C167.242 18.6207 167.145 18.7442 167.004 18.8699C166.866 18.9956 166.688 19.1018 166.468 19.1884C166.253 19.2708 165.995 19.3119 165.694 19.3119C165.303 19.3119 164.964 19.2253 164.676 19.0519C164.392 18.8786 164.173 18.6272 164.018 18.2979C163.863 17.9685 163.786 17.572 163.786 17.1083V16.5428C163.786 16.0574 163.863 15.6479 164.018 15.3142C164.177 14.9805 164.392 14.7292 164.663 14.5602C164.938 14.3868 165.25 14.3001 165.598 14.3001C165.946 14.3001 166.253 14.3825 166.52 14.5472C166.786 14.7118 166.995 14.961 167.145 15.2947C167.3 15.624 167.378 16.0401 167.378 16.5428V17.1083L168.048 16.1722H163.083V17.1798H168.745V16.6858C168.745 15.9751 168.618 15.3554 168.364 14.8267C168.111 14.2936 167.747 13.8798 167.274 13.5851C166.806 13.2904 166.245 13.1431 165.591 13.1431C164.942 13.1431 164.375 13.2969 163.889 13.6046C163.407 13.9123 163.033 14.3413 162.767 14.8917C162.504 15.442 162.373 16.0856 162.373 16.8223V16.8288C162.373 17.5742 162.504 18.2199 162.767 18.7659C163.033 19.3119 163.412 19.7345 163.902 20.0335C164.392 20.3282 164.979 20.4755 165.662 20.4755Z" fill="white"/>
<path fill-rule="evenodd" clip-rule="evenodd" d="M124.4 42.9842C121.885 42.9842 120.045 41.7304 119.833 39.8208L116.906 39.8207C117.091 43.3036 119.951 45.507 124.188 45.507C128.716 45.507 131.563 43.2506 131.563 39.648C131.563 36.8314 129.934 35.2444 126.015 34.31L123.91 33.7891C121.448 33.1759 120.441 32.3748 120.441 31.0134C120.441 29.3052 122.017 28.1316 124.32 28.1316C126.623 28.1316 128.199 29.2916 128.372 31.2133H131.258C131.165 27.8908 128.397 25.6088 124.361 25.6088C120.282 25.6088 117.41 27.8908 117.41 31.2133C117.41 33.8967 119.038 35.5503 122.546 36.4044L125.022 37.0056C127.498 37.6189 128.543 38.5139 128.543 40.0085C128.543 41.7303 126.81 42.9842 124.4 42.9842ZM67.3101 39.9813H74.5918L76.339 45.1861H79.4759L72.5787 25.9298H69.3743L62.4771 45.1861H65.5614L67.3101 39.9813ZM73.8362 37.5796H68.0642L70.9112 29.1327H70.9908L73.8362 37.5796ZM88.5589 45.333C92.0548 45.333 94.3714 42.53 94.3714 38.1672C94.3714 33.8165 92.0412 30.9999 88.5063 30.9998C87.6136 30.9708 86.7297 31.1863 85.9488 31.6233C85.1679 32.0604 84.5191 32.7027 84.0715 33.4818H84.0189V31.1467H81.2516V49.8305H84.1105V42.8767H84.1767C84.6046 43.6596 85.2426 44.3052 86.0176 44.7396C86.7926 45.174 87.6734 45.3797 88.5589 45.333ZM87.7522 33.4561C89.9756 33.4561 91.4329 35.3248 91.4329 38.1672C91.4329 41.0353 89.9756 42.8904 87.7522 42.8904C85.5678 42.8904 84.0985 40.9959 84.0985 38.1672C84.0985 35.3641 85.5678 33.4561 87.7522 33.4561ZM109.701 38.1672C109.701 42.5299 107.385 45.333 103.889 45.333C103.003 45.3796 102.122 45.174 101.347 44.7396C100.572 44.3052 99.9343 43.6596 99.5064 42.8767H99.4402V49.8305H96.5813V31.1467H99.3486V33.4818H99.4011C99.8487 32.7027 100.498 32.0604 101.278 31.6233C102.059 31.1863 102.943 30.9708 103.836 30.9998C107.371 30.9998 109.701 33.8165 109.701 38.1672ZM106.763 38.1672C106.763 35.3248 105.305 33.4561 103.082 33.4561C100.897 33.4561 99.4282 35.3641 99.4282 38.1672C99.4282 40.9959 100.897 42.8903 103.082 42.8903C105.305 42.8903 106.763 41.0353 106.763 38.1672ZM137.733 27.8243V31.1468H140.382V33.4288H137.733V41.1686C137.733 42.371 138.263 42.9313 139.428 42.9313C139.742 42.9257 140.056 42.9035 140.368 42.8646V45.133C139.845 45.2316 139.312 45.2763 138.78 45.2663C135.96 45.2663 134.86 44.1987 134.86 41.4759V33.4288H132.835V31.1468H134.86V27.8243H137.733ZM148.521 30.9741C144.496 30.9741 141.915 33.7499 141.915 38.1672C141.915 42.5966 144.471 45.3602 148.521 45.3602C152.573 45.3602 155.128 42.5966 155.128 38.1672C155.128 33.7498 152.559 30.9741 148.521 30.9741ZM148.521 33.3486C150.838 33.3486 152.215 35.137 152.215 38.1672C152.215 41.2094 150.838 42.9842 148.521 42.9842C146.205 42.9842 144.828 41.2094 144.828 38.1672C144.828 35.1506 146.205 33.3486 148.521 33.3486ZM157.485 31.1467H160.212V33.5363H160.278C160.463 32.79 160.897 32.1305 161.507 31.6685C162.117 31.2066 162.866 30.9705 163.628 30.9998C163.958 30.9987 164.287 31.0347 164.608 31.1074V33.8029C164.192 33.6747 163.758 33.6159 163.323 33.6287C162.908 33.6117 162.494 33.6856 162.11 33.8451C161.725 34.0046 161.38 34.2461 161.097 34.553C160.814 34.8599 160.6 35.2248 160.47 35.6228C160.34 36.0208 160.297 36.4425 160.344 36.8588V45.1861H157.485L157.485 31.1467ZM171.792 45.3602C174.942 45.3602 177.405 43.6112 177.789 41.0626L175.075 41.0625C174.821 41.6969 174.371 42.2318 173.791 42.5875C173.212 42.9433 172.534 43.101 171.858 43.0372C171.344 43.0563 170.832 42.9649 170.355 42.769C169.879 42.5732 169.449 42.2774 169.094 41.9013C168.74 41.5251 168.469 41.0773 168.3 40.5876C168.13 40.0978 168.066 39.5773 168.111 39.0606V38.8865H177.949V37.8991C177.949 33.6423 175.525 30.9741 171.672 30.9741C167.754 30.9741 165.225 33.8301 165.225 38.2338C165.225 42.6238 167.74 45.3602 171.792 45.3602ZM175.088 36.8724H168.125C168.124 36.4031 168.215 35.9383 168.393 35.5046C168.571 35.071 168.832 34.6771 169.162 34.3459C169.492 34.0146 169.883 33.7524 170.314 33.5745C170.745 33.3966 171.206 33.3064 171.672 33.3092C172.133 33.2992 172.592 33.3855 173.019 33.5626C173.446 33.7397 173.832 34.0038 174.152 34.3384C174.473 34.673 174.722 35.0708 174.883 35.5069C175.044 35.9429 175.114 36.4078 175.088 36.8724Z" fill="white"/>
<path fill-rule="evenodd" clip-rule="evenodd" d="M43.213 29.3225C43.213 24.1995 47.2758 22.0893 47.2758 22.0893C47.2758 22.0893 45.1988 18.2714 39.9202 18.2714C36.8528 18.2714 34.4971 20.0453 33.2268 20.0453C31.7501 20.0453 29.5427 18.3766 26.6969 18.3766C22.3212 18.3766 17.6568 22.3607 17.6568 29.9523C17.6568 37.6687 23.1685 47.268 27.5315 47.268C29.0525 47.268 31.3917 45.7083 33.7461 45.7083C36.0599 45.7083 37.7633 47.2121 39.9594 47.2121C44.7366 47.2121 48.2726 37.0908 48.2726 37.0908C48.2726 37.0908 43.213 35.1 43.213 29.3225ZM38.5055 15.1924C40.9587 12.1991 40.447 9.09024 40.447 9.09024C40.447 9.09024 37.0174 9.10582 34.549 12.4134C32.3555 15.3521 32.914 17.8662 32.914 17.8662C32.914 17.8662 35.8877 18.3896 38.5055 15.1924Z" fill="white"/>
</svg>
