<svg width="14" height="14" viewBox="0 0 14 14" fill="none" xmlns="http://www.w3.org/2000/svg">
<path fill-rule="evenodd" clip-rule="evenodd" d="M1.66677 7.00037C1.66677 5.58581 2.2287 4.22919 3.22895 3.22895C4.22919 2.2287 5.58581 1.66677 7.00037 1.66677C8.41492 1.66677 9.77154 2.2287 10.7718 3.22895C11.772 4.22919 12.334 5.58581 12.334 7.00037C12.334 8.41492 11.772 9.77154 10.7718 10.7718C9.77154 11.772 8.41492 12.334 7.00037 12.334C5.58581 12.334 4.22919 11.772 3.22895 10.7718C2.2287 9.77154 1.66677 8.41492 1.66677 7.00037ZM7.00037 0.333374C3.31819 0.333374 0.333374 3.31819 0.333374 7.00037C0.333374 10.6825 3.31819 13.6674 7.00037 13.6674C10.6825 13.6674 13.6674 10.6825 13.6674 7.00037C13.6674 3.31819 10.6825 0.333374 7.00037 0.333374ZM7.66706 3.00017C7.66706 2.82335 7.59682 2.65377 7.47179 2.52874C7.34676 2.40371 7.17718 2.33347 7.00037 2.33347C6.82355 2.33347 6.65397 2.40371 6.52894 2.52874C6.40391 2.65377 6.33367 2.82335 6.33367 3.00017V7.00037C6.3337 7.17717 6.40397 7.34672 6.52901 7.47172L8.52911 9.47182C8.65485 9.59326 8.82326 9.66046 8.99806 9.65894C9.17287 9.65742 9.34009 9.58731 9.4637 9.4637C9.58731 9.34009 9.65742 9.17287 9.65894 8.99806C9.66046 8.82326 9.59326 8.65485 9.47182 8.52911L7.66706 6.72435V3.00017Z" fill="white" fill-opacity="0.5"/>
</svg>
