<svg width="36" height="31" viewBox="0 0 36 31" fill="none" xmlns="http://www.w3.org/2000/svg">
<g filter="url(#filter0_d_55_1606)">
<path fill-rule="evenodd" clip-rule="evenodd" d="M11 5C10.4477 5 10 5.44772 10 6C10 6.55228 10.4477 7 11 7H27C27.5523 7 28 6.55228 28 6C28 5.44772 27.5523 5 27 5H11Z" fill="url(#paint0_linear_55_1606)"/>
</g>
<g filter="url(#filter1_d_55_1606)">
<path fill-rule="evenodd" clip-rule="evenodd" d="M9 11C8.44772 11 8 11.4477 8 12C8 12.5523 8.44772 13 9 13H25C25.5523 13 26 12.5523 26 12C26 11.4477 25.5523 11 25 11H9Z" fill="url(#paint1_linear_55_1606)"/>
</g>
<g filter="url(#filter2_d_55_1606)">
<path fill-rule="evenodd" clip-rule="evenodd" d="M11 17C10.4477 17 10 17.4477 10 18C10 18.5523 10.4477 19 11 19H27C27.5523 19 28 18.5523 28 18C28 17.4477 27.5523 17 27 17H11Z" fill="url(#paint2_linear_55_1606)"/>
</g>
<defs>
<filter id="filter0_d_55_1606" x="2" y="1" width="34" height="18" filterUnits="userSpaceOnUse" color-interpolation-filters="sRGB">
<feFlood flood-opacity="0" result="BackgroundImageFix"/>
<feColorMatrix in="SourceAlpha" type="matrix" values="0 0 0 0 0 0 0 0 0 0 0 0 0 0 0 0 0 0 127 0" result="hardAlpha"/>
<feOffset dy="4"/>
<feGaussianBlur stdDeviation="4"/>
<feComposite in2="hardAlpha" operator="out"/>
<feColorMatrix type="matrix" values="0 0 0 0 0.00868055 0 0 0 0 0.0405093 0 0 0 0 0.104167 0 0 0 0.2 0"/>
<feBlend mode="normal" in2="BackgroundImageFix" result="effect1_dropShadow_55_1606"/>
<feBlend mode="normal" in="SourceGraphic" in2="effect1_dropShadow_55_1606" result="shape"/>
</filter>
<filter id="filter1_d_55_1606" x="0" y="7" width="34" height="18" filterUnits="userSpaceOnUse" color-interpolation-filters="sRGB">
<feFlood flood-opacity="0" result="BackgroundImageFix"/>
<feColorMatrix in="SourceAlpha" type="matrix" values="0 0 0 0 0 0 0 0 0 0 0 0 0 0 0 0 0 0 127 0" result="hardAlpha"/>
<feOffset dy="4"/>
<feGaussianBlur stdDeviation="4"/>
<feComposite in2="hardAlpha" operator="out"/>
<feColorMatrix type="matrix" values="0 0 0 0 0.00868055 0 0 0 0 0.0405093 0 0 0 0 0.104167 0 0 0 0.2 0"/>
<feBlend mode="normal" in2="BackgroundImageFix" result="effect1_dropShadow_55_1606"/>
<feBlend mode="normal" in="SourceGraphic" in2="effect1_dropShadow_55_1606" result="shape"/>
</filter>
<filter id="filter2_d_55_1606" x="2" y="13" width="34" height="18" filterUnits="userSpaceOnUse" color-interpolation-filters="sRGB">
<feFlood flood-opacity="0" result="BackgroundImageFix"/>
<feColorMatrix in="SourceAlpha" type="matrix" values="0 0 0 0 0 0 0 0 0 0 0 0 0 0 0 0 0 0 127 0" result="hardAlpha"/>
<feOffset dy="4"/>
<feGaussianBlur stdDeviation="4"/>
<feComposite in2="hardAlpha" operator="out"/>
<feColorMatrix type="matrix" values="0 0 0 0 0.00868055 0 0 0 0 0.0405093 0 0 0 0 0.104167 0 0 0 0.2 0"/>
<feBlend mode="normal" in2="BackgroundImageFix" result="effect1_dropShadow_55_1606"/>
<feBlend mode="normal" in="SourceGraphic" in2="effect1_dropShadow_55_1606" result="shape"/>
</filter>
<linearGradient id="paint0_linear_55_1606" x1="28" y1="7" x2="16.9902" y2="-2.82954" gradientUnits="userSpaceOnUse">
<stop stop-color="#F03E1D"/>
<stop offset="1" stop-color="#F08F1D"/>
</linearGradient>
<linearGradient id="paint1_linear_55_1606" x1="26" y1="13" x2="14.9902" y2="3.17046" gradientUnits="userSpaceOnUse">
<stop stop-color="#F03E1D"/>
<stop offset="1" stop-color="#F08F1D"/>
</linearGradient>
<linearGradient id="paint2_linear_55_1606" x1="28" y1="19" x2="16.9902" y2="9.17046" gradientUnits="userSpaceOnUse">
<stop stop-color="#F03E1D"/>
<stop offset="1" stop-color="#F08F1D"/>
</linearGradient>
</defs>
</svg>
