<svg width="24" height="24" viewBox="0 0 24 24" fill="none" xmlns="http://www.w3.org/2000/svg">
<path fill-rule="evenodd" clip-rule="evenodd" d="M7.12132 18.435C6.7308 18.8256 6.09763 18.8256 5.70711 18.435C5.31658 18.0445 5.31658 17.4113 5.70711 17.0208L10.6569 12.071L5.7072 7.12132C5.31668 6.7308 5.31668 6.09763 5.7072 5.70711C6.09772 5.31658 6.73089 5.31658 7.12141 5.70711L12.0711 10.6568L17.0208 5.7071C17.4113 5.31658 18.0445 5.31658 18.435 5.7071C18.8256 6.09763 18.8256 6.73079 18.435 7.12132L13.4853 12.071L18.4351 17.0208C18.8256 17.4113 18.8256 18.0445 18.4351 18.435C18.0446 18.8256 17.4114 18.8256 17.0209 18.435L12.0711 13.4852L7.12132 18.435Z" fill="url(#paint0_linear_55_2595)"/>
<defs>
<linearGradient id="paint0_linear_55_2595" x1="19.1422" y1="19.1421" x2="3.74857" y2="17.6151" gradientUnits="userSpaceOnUse">
<stop stop-color="#F03E1D"/>
<stop offset="1" stop-color="#F08F1D"/>
</linearGradient>
</defs>
</svg>
