<svg width="158" height="48" viewBox="0 0 158 48" fill="none" xmlns="http://www.w3.org/2000/svg">
<path d="M47.5946 26.4774C47.6724 25.6645 47.7503 24.8516 47.7503 24C47.7503 11.1871 36.8537 0.348389 23.9724 0.348389C11.0911 0.348389 0.19458 11.1871 0.19458 24C0.19458 36.8129 11.0911 47.6516 23.9724 47.6516C34.2852 47.6516 43.3138 40.7226 46.5049 31.3936H45.3374H44.0532H42.3409H30.4714V14.2839H30.2768H27.864H9.3399V16.529H12.8424H23.3498H27.864V33.7161H30.4714H42.3409H43.0025C39.3833 40.5677 32.1059 45.3677 23.9724 45.3677C12.3365 45.3677 2.49064 35.5742 2.49064 24C2.49064 12.4258 12.3365 2.63226 23.9724 2.63226C35.6084 2.63226 45.4542 12.4258 45.4542 24C45.4542 24.8516 45.4153 25.6645 45.2985 26.4774H47.5946Z" fill="#EC1824"/>
<path d="M9.30096 18.8129V33.7161H25.1788V31.471H11.9084V24.6193H23.7778V22.4903H11.9084V18.8129H9.30096Z" fill="#EC1824"/>
<path d="M67.1306 14.2839H58.4911C54.9887 14.2839 53.4709 15.8323 53.4709 19.2774V28.6839C53.4709 32.1677 55.0276 33.6774 58.4911 33.6774H67.1306C70.633 33.6774 72.1507 32.129 72.1507 28.6839V23.6129H63.3557V25.7419H69.6212V28.4516C69.6212 30.7742 68.8429 31.5484 66.5079 31.5484H59.1527C56.8956 31.5484 56.0394 30.6968 56.0394 28.4516V19.6258C56.0394 17.3419 56.8567 16.529 59.1527 16.529H66.469C68.8039 16.529 69.5823 17.3032 69.5823 19.6258V20.4774H72.1897V19.3161C72.1897 15.8323 70.633 14.2839 67.1306 14.2839Z" fill="white"/>
<path d="M85.3044 14.2839H82.6581L73.1237 33.7161H75.8867L78.2217 28.7613H89.5463L91.8813 33.7161H94.8L85.3044 14.3613V14.2839ZM79.2335 26.6323L83.9035 16.7613L88.5345 26.6323H79.2335Z" fill="white"/>
<path d="M107.214 26.8258L98.8084 14.2839H96.5512V33.7161H99.0419V18.8129L106.397 29.6903H107.876L115.27 18.8129V33.7161H117.722V14.2839H115.581L107.214 26.8258Z" fill="white"/>
<path d="M154.031 22.9549L144.613 22.0258C142.978 21.8323 142.55 21.4065 142.55 19.9742V18.4645C142.55 16.9162 143.056 16.4129 144.613 16.4129H152.863C154.42 16.4129 154.926 16.9162 154.926 18.4645V19.471H157.455V18.1161C157.455 15.5226 156.249 14.3226 153.641 14.3226H143.796C141.188 14.3226 139.982 15.5226 139.982 18.1161V20.4774C139.982 22.9161 141.071 24.0387 143.796 24.271L153.213 25.1613C154.848 25.3549 155.276 25.7807 155.276 27.2129V29.4968C155.276 31.0452 154.77 31.5484 153.213 31.5484H144.301C142.745 31.5484 142.239 31.0452 142.239 29.4968V28.0645H139.709V29.8839C139.709 32.4774 140.916 33.6774 143.523 33.6774H154.031C156.638 33.6774 157.844 32.4774 157.844 29.8839V26.7484C157.844 24.3097 156.716 23.1871 154.031 22.9549Z" fill="white"/>
<path d="M124.026 16.529H136.985V14.2839H121.419V16.529H124.026Z" fill="white"/>
<path d="M124.026 24.6194H135.896V22.4903H124.026V18.8516H121.419V33.7161H137.258V31.471H124.026V24.6194Z" fill="white"/>
</svg>
